<mxfile host="app.diagrams.net" agent="Mozilla/5.0 (Windows NT 10.0; Win64; x64) AppleWebKit/537.36 (KHTML, like Gecko) Chrome/138.0.0.0 Safari/537.36" version="28.0.5">
  <diagram name="Pagina-1" id="CWtKIR6qDgWhordfSGdM">
    <mxGraphModel dx="579" dy="293" grid="1" gridSize="10" guides="1" tooltips="1" connect="1" arrows="1" fold="1" page="1" pageScale="1" pageWidth="2339" pageHeight="3300" math="0" shadow="0">
      <root>
        <mxCell id="0" />
        <mxCell id="1" parent="0" />
        <mxCell id="4qUPRxpnoBLBH63eIWVk-55" value="" style="group" vertex="1" connectable="0" parent="1">
          <mxGeometry x="260" y="40" width="470" height="90" as="geometry" />
        </mxCell>
        <mxCell id="4qUPRxpnoBLBH63eIWVk-56" value="" style="group;strokeWidth=2;" vertex="1" connectable="0" parent="4qUPRxpnoBLBH63eIWVk-55">
          <mxGeometry x="70" width="320" height="40" as="geometry" />
        </mxCell>
        <mxCell id="4qUPRxpnoBLBH63eIWVk-57" value="" style="rounded=0;whiteSpace=wrap;html=1;strokeWidth=2;" vertex="1" parent="4qUPRxpnoBLBH63eIWVk-56">
          <mxGeometry width="20" height="40" as="geometry" />
        </mxCell>
        <mxCell id="4qUPRxpnoBLBH63eIWVk-58" value="" style="rounded=0;whiteSpace=wrap;html=1;strokeWidth=2;" vertex="1" parent="4qUPRxpnoBLBH63eIWVk-56">
          <mxGeometry x="20" width="20" height="40" as="geometry" />
        </mxCell>
        <mxCell id="4qUPRxpnoBLBH63eIWVk-59" value="" style="rounded=0;whiteSpace=wrap;html=1;strokeWidth=2;" vertex="1" parent="4qUPRxpnoBLBH63eIWVk-56">
          <mxGeometry x="40" width="20" height="40" as="geometry" />
        </mxCell>
        <mxCell id="4qUPRxpnoBLBH63eIWVk-60" value="" style="rounded=0;whiteSpace=wrap;html=1;strokeWidth=2;" vertex="1" parent="4qUPRxpnoBLBH63eIWVk-56">
          <mxGeometry x="60" width="20" height="40" as="geometry" />
        </mxCell>
        <mxCell id="4qUPRxpnoBLBH63eIWVk-61" value="" style="rounded=0;whiteSpace=wrap;html=1;strokeWidth=2;" vertex="1" parent="4qUPRxpnoBLBH63eIWVk-56">
          <mxGeometry x="80" width="20" height="40" as="geometry" />
        </mxCell>
        <mxCell id="4qUPRxpnoBLBH63eIWVk-62" value="" style="rounded=0;whiteSpace=wrap;html=1;strokeWidth=2;" vertex="1" parent="4qUPRxpnoBLBH63eIWVk-56">
          <mxGeometry x="100" width="20" height="40" as="geometry" />
        </mxCell>
        <mxCell id="4qUPRxpnoBLBH63eIWVk-63" value="" style="rounded=0;whiteSpace=wrap;html=1;strokeWidth=2;" vertex="1" parent="4qUPRxpnoBLBH63eIWVk-56">
          <mxGeometry x="120" width="20" height="40" as="geometry" />
        </mxCell>
        <mxCell id="4qUPRxpnoBLBH63eIWVk-64" value="" style="rounded=0;whiteSpace=wrap;html=1;strokeWidth=2;" vertex="1" parent="4qUPRxpnoBLBH63eIWVk-56">
          <mxGeometry x="140" width="20" height="40" as="geometry" />
        </mxCell>
        <mxCell id="4qUPRxpnoBLBH63eIWVk-65" value="" style="rounded=0;whiteSpace=wrap;html=1;strokeWidth=2;" vertex="1" parent="4qUPRxpnoBLBH63eIWVk-56">
          <mxGeometry x="160" width="20" height="40" as="geometry" />
        </mxCell>
        <mxCell id="4qUPRxpnoBLBH63eIWVk-66" value="" style="rounded=0;whiteSpace=wrap;html=1;strokeWidth=2;" vertex="1" parent="4qUPRxpnoBLBH63eIWVk-56">
          <mxGeometry x="180" width="20" height="40" as="geometry" />
        </mxCell>
        <mxCell id="4qUPRxpnoBLBH63eIWVk-67" value="" style="rounded=0;whiteSpace=wrap;html=1;strokeWidth=2;" vertex="1" parent="4qUPRxpnoBLBH63eIWVk-56">
          <mxGeometry x="200" width="20" height="40" as="geometry" />
        </mxCell>
        <mxCell id="4qUPRxpnoBLBH63eIWVk-68" value="" style="rounded=0;whiteSpace=wrap;html=1;strokeWidth=2;" vertex="1" parent="4qUPRxpnoBLBH63eIWVk-56">
          <mxGeometry x="220" width="20" height="40" as="geometry" />
        </mxCell>
        <mxCell id="4qUPRxpnoBLBH63eIWVk-69" value="" style="rounded=0;whiteSpace=wrap;html=1;strokeWidth=2;" vertex="1" parent="4qUPRxpnoBLBH63eIWVk-56">
          <mxGeometry x="240" width="20" height="40" as="geometry" />
        </mxCell>
        <mxCell id="4qUPRxpnoBLBH63eIWVk-70" value="" style="rounded=0;whiteSpace=wrap;html=1;strokeWidth=2;" vertex="1" parent="4qUPRxpnoBLBH63eIWVk-56">
          <mxGeometry x="260" width="20" height="40" as="geometry" />
        </mxCell>
        <mxCell id="4qUPRxpnoBLBH63eIWVk-71" value="" style="rounded=0;whiteSpace=wrap;html=1;strokeWidth=2;" vertex="1" parent="4qUPRxpnoBLBH63eIWVk-56">
          <mxGeometry x="280" width="20" height="40" as="geometry" />
        </mxCell>
        <mxCell id="4qUPRxpnoBLBH63eIWVk-72" value="" style="rounded=0;whiteSpace=wrap;html=1;strokeWidth=2;" vertex="1" parent="4qUPRxpnoBLBH63eIWVk-56">
          <mxGeometry x="300" width="20" height="40" as="geometry" />
        </mxCell>
        <mxCell id="4qUPRxpnoBLBH63eIWVk-75" value="" style="rounded=0;whiteSpace=wrap;html=1;" vertex="1" parent="4qUPRxpnoBLBH63eIWVk-55">
          <mxGeometry x="30" y="70" width="20" height="20" as="geometry" />
        </mxCell>
        <mxCell id="4qUPRxpnoBLBH63eIWVk-76" value="" style="endArrow=none;html=1;rounded=0;entryX=0.5;entryY=1;entryDx=0;entryDy=0;exitX=0.5;exitY=0;exitDx=0;exitDy=0;" edge="1" parent="4qUPRxpnoBLBH63eIWVk-55" source="4qUPRxpnoBLBH63eIWVk-75" target="4qUPRxpnoBLBH63eIWVk-58">
          <mxGeometry width="50" height="50" relative="1" as="geometry">
            <mxPoint x="170" y="170" as="sourcePoint" />
            <mxPoint x="220" y="120" as="targetPoint" />
          </mxGeometry>
        </mxCell>
        <mxCell id="4qUPRxpnoBLBH63eIWVk-77" value="" style="rounded=0;whiteSpace=wrap;html=1;" vertex="1" parent="4qUPRxpnoBLBH63eIWVk-55">
          <mxGeometry x="60" y="70" width="20" height="20" as="geometry" />
        </mxCell>
        <mxCell id="4qUPRxpnoBLBH63eIWVk-78" value="" style="endArrow=none;html=1;rounded=0;entryX=0.5;entryY=1;entryDx=0;entryDy=0;exitX=0.5;exitY=0;exitDx=0;exitDy=0;" edge="1" parent="4qUPRxpnoBLBH63eIWVk-55" source="4qUPRxpnoBLBH63eIWVk-77" target="4qUPRxpnoBLBH63eIWVk-59">
          <mxGeometry width="50" height="50" relative="1" as="geometry">
            <mxPoint x="170" y="170" as="sourcePoint" />
            <mxPoint x="220" y="120" as="targetPoint" />
          </mxGeometry>
        </mxCell>
        <mxCell id="4qUPRxpnoBLBH63eIWVk-80" value="" style="rounded=0;whiteSpace=wrap;html=1;" vertex="1" parent="4qUPRxpnoBLBH63eIWVk-55">
          <mxGeometry x="120" y="70" width="20" height="20" as="geometry" />
        </mxCell>
        <mxCell id="4qUPRxpnoBLBH63eIWVk-81" value="" style="endArrow=none;html=1;rounded=0;entryX=0.5;entryY=1;entryDx=0;entryDy=0;exitX=0.5;exitY=0;exitDx=0;exitDy=0;" edge="1" parent="4qUPRxpnoBLBH63eIWVk-55" source="4qUPRxpnoBLBH63eIWVk-80" target="4qUPRxpnoBLBH63eIWVk-61">
          <mxGeometry width="50" height="50" relative="1" as="geometry">
            <mxPoint x="170" y="170" as="sourcePoint" />
            <mxPoint x="220" y="120" as="targetPoint" />
          </mxGeometry>
        </mxCell>
        <mxCell id="4qUPRxpnoBLBH63eIWVk-82" value="" style="rounded=0;whiteSpace=wrap;html=1;" vertex="1" parent="4qUPRxpnoBLBH63eIWVk-55">
          <mxGeometry x="150" y="70" width="20" height="20" as="geometry" />
        </mxCell>
        <mxCell id="4qUPRxpnoBLBH63eIWVk-83" value="" style="endArrow=none;html=1;rounded=0;entryX=0.5;entryY=1;entryDx=0;entryDy=0;exitX=0.5;exitY=0;exitDx=0;exitDy=0;" edge="1" parent="4qUPRxpnoBLBH63eIWVk-55" source="4qUPRxpnoBLBH63eIWVk-82" target="4qUPRxpnoBLBH63eIWVk-62">
          <mxGeometry width="50" height="50" relative="1" as="geometry">
            <mxPoint x="170" y="170" as="sourcePoint" />
            <mxPoint x="220" y="120" as="targetPoint" />
          </mxGeometry>
        </mxCell>
        <mxCell id="4qUPRxpnoBLBH63eIWVk-84" value="" style="rounded=0;whiteSpace=wrap;html=1;" vertex="1" parent="4qUPRxpnoBLBH63eIWVk-55">
          <mxGeometry x="180" y="70" width="20" height="20" as="geometry" />
        </mxCell>
        <mxCell id="4qUPRxpnoBLBH63eIWVk-85" value="" style="endArrow=none;html=1;rounded=0;entryX=0.5;entryY=1;entryDx=0;entryDy=0;exitX=0.5;exitY=0;exitDx=0;exitDy=0;" edge="1" parent="4qUPRxpnoBLBH63eIWVk-55" source="4qUPRxpnoBLBH63eIWVk-84" target="4qUPRxpnoBLBH63eIWVk-63">
          <mxGeometry width="50" height="50" relative="1" as="geometry">
            <mxPoint x="170" y="170" as="sourcePoint" />
            <mxPoint x="220" y="120" as="targetPoint" />
          </mxGeometry>
        </mxCell>
        <mxCell id="4qUPRxpnoBLBH63eIWVk-86" value="" style="rounded=0;whiteSpace=wrap;html=1;" vertex="1" parent="4qUPRxpnoBLBH63eIWVk-55">
          <mxGeometry x="210" y="70" width="20" height="20" as="geometry" />
        </mxCell>
        <mxCell id="4qUPRxpnoBLBH63eIWVk-87" value="" style="endArrow=none;html=1;rounded=0;entryX=0.5;entryY=1;entryDx=0;entryDy=0;exitX=0.5;exitY=0;exitDx=0;exitDy=0;" edge="1" parent="4qUPRxpnoBLBH63eIWVk-55" source="4qUPRxpnoBLBH63eIWVk-86" target="4qUPRxpnoBLBH63eIWVk-64">
          <mxGeometry width="50" height="50" relative="1" as="geometry">
            <mxPoint x="170" y="170" as="sourcePoint" />
            <mxPoint x="220" y="120" as="targetPoint" />
          </mxGeometry>
        </mxCell>
        <mxCell id="4qUPRxpnoBLBH63eIWVk-88" value="" style="rounded=0;whiteSpace=wrap;html=1;" vertex="1" parent="4qUPRxpnoBLBH63eIWVk-55">
          <mxGeometry x="240" y="70" width="20" height="20" as="geometry" />
        </mxCell>
        <mxCell id="4qUPRxpnoBLBH63eIWVk-89" value="" style="endArrow=none;html=1;rounded=0;entryX=0.5;entryY=1;entryDx=0;entryDy=0;exitX=0.5;exitY=0;exitDx=0;exitDy=0;" edge="1" parent="4qUPRxpnoBLBH63eIWVk-55" source="4qUPRxpnoBLBH63eIWVk-88" target="4qUPRxpnoBLBH63eIWVk-65">
          <mxGeometry width="50" height="50" relative="1" as="geometry">
            <mxPoint x="170" y="170" as="sourcePoint" />
            <mxPoint x="220" y="120" as="targetPoint" />
          </mxGeometry>
        </mxCell>
        <mxCell id="4qUPRxpnoBLBH63eIWVk-90" value="" style="rounded=0;whiteSpace=wrap;html=1;" vertex="1" parent="4qUPRxpnoBLBH63eIWVk-55">
          <mxGeometry x="270" y="70" width="20" height="20" as="geometry" />
        </mxCell>
        <mxCell id="4qUPRxpnoBLBH63eIWVk-91" value="" style="endArrow=none;html=1;rounded=0;entryX=0.5;entryY=1;entryDx=0;entryDy=0;exitX=0.5;exitY=0;exitDx=0;exitDy=0;" edge="1" parent="4qUPRxpnoBLBH63eIWVk-55" source="4qUPRxpnoBLBH63eIWVk-90" target="4qUPRxpnoBLBH63eIWVk-66">
          <mxGeometry width="50" height="50" relative="1" as="geometry">
            <mxPoint x="170" y="170" as="sourcePoint" />
            <mxPoint x="220" y="120" as="targetPoint" />
          </mxGeometry>
        </mxCell>
        <mxCell id="4qUPRxpnoBLBH63eIWVk-92" value="" style="rounded=0;whiteSpace=wrap;html=1;" vertex="1" parent="4qUPRxpnoBLBH63eIWVk-55">
          <mxGeometry x="300" y="70" width="20" height="20" as="geometry" />
        </mxCell>
        <mxCell id="4qUPRxpnoBLBH63eIWVk-93" value="" style="rounded=0;whiteSpace=wrap;html=1;" vertex="1" parent="4qUPRxpnoBLBH63eIWVk-55">
          <mxGeometry x="330" y="70" width="20" height="20" as="geometry" />
        </mxCell>
        <mxCell id="4qUPRxpnoBLBH63eIWVk-94" value="" style="rounded=0;whiteSpace=wrap;html=1;" vertex="1" parent="4qUPRxpnoBLBH63eIWVk-55">
          <mxGeometry x="360" y="70" width="20" height="20" as="geometry" />
        </mxCell>
        <mxCell id="4qUPRxpnoBLBH63eIWVk-95" value="" style="endArrow=none;html=1;rounded=0;entryX=0.5;entryY=1;entryDx=0;entryDy=0;exitX=0.5;exitY=0;exitDx=0;exitDy=0;" edge="1" parent="4qUPRxpnoBLBH63eIWVk-55" source="4qUPRxpnoBLBH63eIWVk-92" target="4qUPRxpnoBLBH63eIWVk-67">
          <mxGeometry width="50" height="50" relative="1" as="geometry">
            <mxPoint x="170" y="170" as="sourcePoint" />
            <mxPoint x="220" y="120" as="targetPoint" />
          </mxGeometry>
        </mxCell>
        <mxCell id="4qUPRxpnoBLBH63eIWVk-96" value="" style="rounded=0;whiteSpace=wrap;html=1;" vertex="1" parent="4qUPRxpnoBLBH63eIWVk-55">
          <mxGeometry x="390" y="70" width="20" height="20" as="geometry" />
        </mxCell>
        <mxCell id="4qUPRxpnoBLBH63eIWVk-97" value="" style="endArrow=none;html=1;rounded=0;entryX=0.5;entryY=1;entryDx=0;entryDy=0;exitX=0.5;exitY=0;exitDx=0;exitDy=0;" edge="1" parent="4qUPRxpnoBLBH63eIWVk-55" source="4qUPRxpnoBLBH63eIWVk-93" target="4qUPRxpnoBLBH63eIWVk-68">
          <mxGeometry width="50" height="50" relative="1" as="geometry">
            <mxPoint x="170" y="170" as="sourcePoint" />
            <mxPoint x="220" y="120" as="targetPoint" />
          </mxGeometry>
        </mxCell>
        <mxCell id="4qUPRxpnoBLBH63eIWVk-98" value="" style="endArrow=none;html=1;rounded=0;entryX=0.5;entryY=1;entryDx=0;entryDy=0;exitX=0.5;exitY=0;exitDx=0;exitDy=0;" edge="1" parent="4qUPRxpnoBLBH63eIWVk-55" source="4qUPRxpnoBLBH63eIWVk-94" target="4qUPRxpnoBLBH63eIWVk-69">
          <mxGeometry width="50" height="50" relative="1" as="geometry">
            <mxPoint x="170" y="170" as="sourcePoint" />
            <mxPoint x="220" y="120" as="targetPoint" />
          </mxGeometry>
        </mxCell>
        <mxCell id="4qUPRxpnoBLBH63eIWVk-99" value="" style="endArrow=none;html=1;rounded=0;entryX=0.5;entryY=1;entryDx=0;entryDy=0;exitX=0.5;exitY=0;exitDx=0;exitDy=0;" edge="1" parent="4qUPRxpnoBLBH63eIWVk-55" source="4qUPRxpnoBLBH63eIWVk-96" target="4qUPRxpnoBLBH63eIWVk-70">
          <mxGeometry width="50" height="50" relative="1" as="geometry">
            <mxPoint x="170" y="170" as="sourcePoint" />
            <mxPoint x="220" y="120" as="targetPoint" />
          </mxGeometry>
        </mxCell>
        <mxCell id="4qUPRxpnoBLBH63eIWVk-100" value="" style="rounded=0;whiteSpace=wrap;html=1;" vertex="1" parent="4qUPRxpnoBLBH63eIWVk-55">
          <mxGeometry x="420" y="70" width="20" height="20" as="geometry" />
        </mxCell>
        <mxCell id="4qUPRxpnoBLBH63eIWVk-101" value="" style="endArrow=none;html=1;rounded=0;entryX=0.5;entryY=1;entryDx=0;entryDy=0;exitX=0.5;exitY=0;exitDx=0;exitDy=0;" edge="1" parent="4qUPRxpnoBLBH63eIWVk-55" source="4qUPRxpnoBLBH63eIWVk-100" target="4qUPRxpnoBLBH63eIWVk-71">
          <mxGeometry width="50" height="50" relative="1" as="geometry">
            <mxPoint x="260" y="170" as="sourcePoint" />
            <mxPoint x="310" y="120" as="targetPoint" />
          </mxGeometry>
        </mxCell>
        <mxCell id="4qUPRxpnoBLBH63eIWVk-148" value="" style="rounded=0;whiteSpace=wrap;html=1;" vertex="1" parent="4qUPRxpnoBLBH63eIWVk-55">
          <mxGeometry x="90" y="70" width="20" height="20" as="geometry" />
        </mxCell>
        <mxCell id="4qUPRxpnoBLBH63eIWVk-149" value="" style="endArrow=none;html=1;rounded=0;exitX=0.5;exitY=0;exitDx=0;exitDy=0;entryX=0.5;entryY=1;entryDx=0;entryDy=0;" edge="1" parent="4qUPRxpnoBLBH63eIWVk-55" source="4qUPRxpnoBLBH63eIWVk-148" target="4qUPRxpnoBLBH63eIWVk-60">
          <mxGeometry width="50" height="50" relative="1" as="geometry">
            <mxPoint x="130" y="100" as="sourcePoint" />
            <mxPoint x="180" y="50" as="targetPoint" />
          </mxGeometry>
        </mxCell>
        <mxCell id="4qUPRxpnoBLBH63eIWVk-150" value="" style="rounded=0;whiteSpace=wrap;html=1;" vertex="1" parent="4qUPRxpnoBLBH63eIWVk-55">
          <mxGeometry x="450" y="70" width="20" height="20" as="geometry" />
        </mxCell>
        <mxCell id="4qUPRxpnoBLBH63eIWVk-151" value="" style="endArrow=none;html=1;rounded=0;entryX=0.5;entryY=1;entryDx=0;entryDy=0;exitX=0.5;exitY=0;exitDx=0;exitDy=0;" edge="1" parent="4qUPRxpnoBLBH63eIWVk-55" source="4qUPRxpnoBLBH63eIWVk-150" target="4qUPRxpnoBLBH63eIWVk-72">
          <mxGeometry width="50" height="50" relative="1" as="geometry">
            <mxPoint x="460" y="60" as="sourcePoint" />
            <mxPoint x="270" y="100" as="targetPoint" />
          </mxGeometry>
        </mxCell>
        <mxCell id="4qUPRxpnoBLBH63eIWVk-152" value="JmtRoot" style="text;html=1;align=center;verticalAlign=middle;whiteSpace=wrap;rounded=0;fontFamily=Times New Roman;fontSize=17;" vertex="1" parent="1">
          <mxGeometry x="460" y="20" width="60" height="20" as="geometry" />
        </mxCell>
        <mxCell id="4qUPRxpnoBLBH63eIWVk-205" value="" style="group;fillColor=default;" vertex="1" connectable="0" parent="1">
          <mxGeometry x="200" y="140" width="90" height="40" as="geometry" />
        </mxCell>
        <mxCell id="4qUPRxpnoBLBH63eIWVk-206" value="" style="ellipse;whiteSpace=wrap;html=1;strokeWidth=2;fillColor=#FFFFFF;fontColor=#ffffff;strokeColor=#000000;" vertex="1" parent="4qUPRxpnoBLBH63eIWVk-205">
          <mxGeometry width="90" height="40" as="geometry" />
        </mxCell>
        <mxCell id="4qUPRxpnoBLBH63eIWVk-207" value="&lt;font face=&quot;Times New Roman&quot;&gt;0x&lt;span style=&quot;background-color: rgb(0, 255, 128);&quot;&gt;00&lt;/span&gt;&lt;span style=&quot;background-color: rgb(204, 0, 102);&quot;&gt;567&lt;/span&gt;, &quot;ciao&quot;&lt;/font&gt;" style="text;html=1;align=center;verticalAlign=middle;whiteSpace=wrap;rounded=0;labelBackgroundColor=default;" vertex="1" parent="4qUPRxpnoBLBH63eIWVk-205">
          <mxGeometry x="3.75" y="5" width="82.5" height="30" as="geometry" />
        </mxCell>
        <mxCell id="4qUPRxpnoBLBH63eIWVk-210" value="" style="endArrow=classic;html=1;rounded=0;strokeColor=#CC0066;" edge="1" parent="4qUPRxpnoBLBH63eIWVk-205">
          <mxGeometry width="50" height="50" relative="1" as="geometry">
            <mxPoint x="40" y="30" as="sourcePoint" />
            <mxPoint x="50" y="60" as="targetPoint" />
          </mxGeometry>
        </mxCell>
        <mxCell id="4qUPRxpnoBLBH63eIWVk-73" value="" style="endArrow=none;html=1;rounded=0;entryX=0.5;entryY=1;entryDx=0;entryDy=0;exitX=0.5;exitY=0;exitDx=0;exitDy=0;" edge="1" parent="1" source="4qUPRxpnoBLBH63eIWVk-206" target="4qUPRxpnoBLBH63eIWVk-57">
          <mxGeometry width="50" height="50" relative="1" as="geometry">
            <mxPoint x="250" y="140" as="sourcePoint" />
            <mxPoint x="350" y="90" as="targetPoint" />
            <Array as="points">
              <mxPoint x="260" y="110" />
            </Array>
          </mxGeometry>
        </mxCell>
        <mxCell id="4qUPRxpnoBLBH63eIWVk-208" value="" style="endArrow=classic;html=1;rounded=0;strokeColor=#00FF80;" edge="1" parent="1">
          <mxGeometry width="50" height="50" relative="1" as="geometry">
            <mxPoint x="223" y="169" as="sourcePoint" />
            <mxPoint x="203" y="199" as="targetPoint" />
          </mxGeometry>
        </mxCell>
        <mxCell id="4qUPRxpnoBLBH63eIWVk-209" value="version" style="text;html=1;align=center;verticalAlign=middle;whiteSpace=wrap;rounded=0;fillColor=default;fontFamily=Times New Roman;fontColor=#00FF80;" vertex="1" parent="1">
          <mxGeometry x="180" y="200" width="40" height="20" as="geometry" />
        </mxCell>
        <mxCell id="4qUPRxpnoBLBH63eIWVk-211" value="nibblePath" style="text;html=1;align=center;verticalAlign=middle;whiteSpace=wrap;rounded=0;fillColor=default;fontFamily=Times New Roman;fontColor=#CC0066;" vertex="1" parent="1">
          <mxGeometry x="240" y="200" width="40" height="20" as="geometry" />
        </mxCell>
      </root>
    </mxGraphModel>
  </diagram>
</mxfile>
